<?xml version="1.0" encoding="utf-8"?>
<!-- Generator: Adobe Illustrator 18.1.1, SVG Export Plug-In . SVG Version: 6.00 Build 0)  -->
<!DOCTYPE svg PUBLIC "-//W3C//DTD SVG 1.1//EN" "http://www.w3.org/Graphics/SVG/1.1/DTD/svg11.dtd">
<svg version="1.1" id="Ebene_1" xmlns="http://www.w3.org/2000/svg" xmlns:xlink="http://www.w3.org/1999/xlink" x="0px" y="0px"
	 width="40px" height="40px" viewBox="-277 400.9 40 40" enable-background="new -277 400.9 40 40" xml:space="preserve">
<g id="Ebene_2" display="none">
	
		<image display="inline" overflow="visible" enable-background="new    " width="975" height="991" xlink:href="6916E93D.png"  transform="matrix(5.000000e-002 0 0 5.000000e-002 -220 399.4901)">
	</image>
</g>
<circle fill="#626262" cx="-257" cy="420.9" r="20"/>
<path display="none" fill="#FFFFFF" d="M-247.9,408.5c-1.8,0-3.3,1.5-3.3,3.3c0,1.1,0.5,2,1.3,2.6c-0.6,1.5-2.3,4.8-5.4,8.2
	c-2.8,3.1-6.4,4.6-8.2,5.2c-0.6-0.8-1.5-1.3-2.6-1.3c-1.8,0-3.3,1.5-3.3,3.3c0,1.8,1.5,3.3,3.3,3.3s3.3-1.5,3.3-3.3c0,0,0-0.1,0-0.1
	c0.9-0.3,5.4-2,9-5.7c3.5-3.7,5.3-7.9,5.8-8.9c0,0,0.1,0,0.1,0c1.8,0,3.3-1.5,3.3-3.3C-244.6,410-246.1,408.5-247.9,408.5z"/>
<path fill="#FFFFFF" d="M-242.8,418.7c-1.2-7.8-7.2-13.3-13.3-12.4c-1.2,0.2-2.3,0.6-3.3,1.2c-1.1-0.2-2.2-0.3-3.3-0.1
	c-6.1,1-9.8,7.4-8.6,15.2c1.2,7.8,7.2,13.9,13.3,12.9c1.6-0.3,3.1-0.9,4.3-1.9c0.7,0,1.4,0,2.1-0.1
	C-245.4,432.5-241.5,426.5-242.8,418.7z M-257.2,427.3l-3.9-2l-3.3,2.9l0-5.2l-3.4-3.3l3.9-1.2l1.2-4.9l2.4,4.5l4.1,0.3l-2.4,4
	L-257.2,427.3z M-252.6,432.6c1.8-2.8,2.9-6.3,2.8-10.3c-0.2-6.9-3.8-12.9-8.7-14.7c5.3,1,9.4,7.1,9.6,14.1
	C-248.8,426.2-250.3,430-252.6,432.6z"/>
</svg>
