<?xml version="1.0" encoding="utf-8"?>
<!-- Generator: Adobe Illustrator 14.0.0, SVG Export Plug-In . SVG Version: 6.00 Build 43363)  -->
<!DOCTYPE svg PUBLIC "-//W3C//DTD SVG 1.1//EN" "http://www.w3.org/Graphics/SVG/1.1/DTD/svg11.dtd">
<svg version="1.1" id="Ebene_1" xmlns="http://www.w3.org/2000/svg" xmlns:xlink="http://www.w3.org/1999/xlink" x="0px" y="0px"
	 width="40px" height="40px" viewBox="0 0 40 40" enable-background="new 0 0 40 40" xml:space="preserve">
<circle fill="#626262" cx="20" cy="20" r="20"/>
<path display="none" fill="#FFFFFF" d="M29.092,7.646c-1.838,0-3.328,1.49-3.328,3.328c0,1.083,0.525,2.036,1.33,2.645
	c-0.648,1.52-2.26,4.773-5.381,8.16c-2.844,3.085-6.39,4.599-8.188,5.214c-0.608-0.782-1.548-1.295-2.616-1.295
	c-1.837,0-3.328,1.491-3.328,3.328c0,1.835,1.49,3.327,3.328,3.327s3.326-1.492,3.326-3.327c0-0.033-0.008-0.063-0.009-0.097
	c0.937-0.321,5.369-1.985,9-5.734c3.543-3.658,5.348-7.852,5.768-8.903c0.033,0,0.064,0.01,0.098,0.01
	c1.836,0,3.326-1.49,3.326-3.327C32.418,9.137,30.928,7.646,29.092,7.646z"/>
<path fill="#FFFFFF" d="M35.605,20.118c0.163-2.243-1.521-4.192-3.761-4.357c-1.8-0.133-3.395,0.934-4.047,2.515l-11.816-0.78
	c-0.537-0.858-2.4-1.252-2.4-1.252l-0.306-3.548l-2.783-0.234l-1.379,1.272l-0.524-0.245l-2.996-0.151
	c-0.638,0.115-0.464,0.927-0.464,0.927l0.506,4.526l-1.022,3.286c0,0-0.406,1.101-0.137,1.484c0.269,0.381,0.911,0.396,0.911,0.396
	l1.756-0.221c0,0,1.115,2.374,1.493,3.134c0.378,0.763,0.818,0.666,0.818,0.666l1.854-0.649c0,0,1.383-3.752,1.533-4.139
	c0.151-0.386,0.591-0.479,0.591-0.479c1.812,0.377,2.604-1.613,2.834-2.354l11.315,0.747c0.366,1.723,1.817,3.082,3.667,3.217
	C33.487,24.043,35.439,22.357,35.605,20.118z M9.696,21.353l-0.77,4.367l-1.405-3.429l-2.372,0.528l1.567-3.758L5.95,14.589
	l2.382,1.785l1.996-2.571L9.859,17.73l2.126,2.777L9.696,21.353z"/>
</svg>
