<?xml version="1.0" encoding="utf-8"?>
<!-- Generator: Adobe Illustrator 18.1.1, SVG Export Plug-In . SVG Version: 6.00 Build 0)  -->
<!DOCTYPE svg PUBLIC "-//W3C//DTD SVG 1.1//EN" "http://www.w3.org/Graphics/SVG/1.1/DTD/svg11.dtd">
<svg version="1.1" id="Ebene_1" xmlns="http://www.w3.org/2000/svg" xmlns:xlink="http://www.w3.org/1999/xlink" x="0px" y="0px"
	 width="40px" height="40px" viewBox="-277 400.9 40 40" enable-background="new -277 400.9 40 40" xml:space="preserve">
<g id="Ebene_2" display="none">
	
		<image display="inline" overflow="visible" enable-background="new    " width="1200" height="489" xlink:href="86BBD2E5.png"  transform="matrix(5.000000e-002 0 0 5.000000e-002 -224.001 408.6649)">
	</image>
</g>
<g id="Ebene_1_1_">
	<circle fill="#626262" cx="-257" cy="420.9" r="20"/>
	<path display="none" fill="#FFFFFF" d="M-247.9,408.5c-1.8,0-3.3,1.5-3.3,3.3c0,1.1,0.5,2,1.3,2.6c-0.6,1.5-2.3,4.8-5.4,8.2
		c-2.8,3.1-6.4,4.6-8.2,5.2c-0.6-0.8-1.5-1.3-2.6-1.3c-1.8,0-3.3,1.5-3.3,3.3c0,1.8,1.5,3.3,3.3,3.3s3.3-1.5,3.3-3.3
		c0,0,0-0.1,0-0.1c0.9-0.3,5.4-2,9-5.7c3.5-3.7,5.3-7.9,5.8-8.9c0,0,0.1,0,0.1,0c1.8,0,3.3-1.5,3.3-3.3
		C-244.6,410-246.1,408.5-247.9,408.5z"/>
	<g>
		<path fill="#FFFFFF" d="M-260.1,419.8c-0.5-3.3,0.1-6.2,1.4-8.2c-1.1-0.5-2.3-0.7-3.5-0.6c-4.1,0.7-6.6,5.4-5.7,11.1
			c0.9,5.7,5,10.3,9.1,9.6c1.8-0.3,3.2-1.4,4.2-3C-257.3,427.3-259.5,423.9-260.1,419.8z"/>
		<path fill="#FFFFFF" d="M-249.4,419.7c-1.2-7.8-7.2-13.3-13.3-12.4c-6.1,1-9.8,7.4-8.6,15.2c1.2,7.8,7.2,13.9,13.3,12.9
			C-251.8,434.5-248.1,427.5-249.4,419.7z M-254.2,429.5c-1.1,1.7-2.7,2.9-4.6,3.2c-4.5,0.7-9-4.2-10-10.4c-1-6.2,1.7-11.3,6.2-12
			c1.3-0.2,2.6,0,3.8,0.6c3,1.4,5.5,4.9,6.2,9.4C-252.1,423.8-252.7,427.1-254.2,429.5z"/>
		<path fill="#FFFFFF" d="M-242.8,418.7c-1.2-7.8-7.2-13.3-13.3-12.4c-1.1,0.2-1.7,0.4-2.6,0.8c5.1,0.8,9.2,5.9,10.2,12.5
			c0.9,5.8-0.4,11.1-3.9,13.8c0.4,0,0.4,0,0.8,0C-245.4,432.5-241.5,426.5-242.8,418.7z"/>
	</g>
</g>
</svg>
